# xmcd
#
# Track frame offsets: 
#        183
#        2488
#        15535
#        30025
#        34920
#        53455
#        71030
#        89070
#        108460
#        133400
#
# Disc length: 2058 seconds
#
# Revision: 2
# Processed by: cddbd v1.5.1PL0 Copyright (c) Steve Scherf et al.
# Submitted via: ExactAudioCopy v0.95a4
#
DISCID=7908080a
DTITLE=James Brown - Live At The Apollo, Part 1
DYEAR=1968
DGENRE=R&B
TTITLE0=Introduction
TTITLE1=Think
TTITLE2=I Want To Be Around
TTITLE3=Thanks
TTITLE4=That's Live
TTITLE5=Kansas City
TTITLE6=Let Yourself Go
TTITLE7=There Was A Time
TTITLE8=I Feel All Right
TTITLE9=Cold Sweat
EXTD=
EXTT0=
EXTT1=(Lewman Pauling) Armo
EXTT2=(S. Vimmerstedt - J. Mercer)
EXTT3=
EXTT4=(Dean Kay-Kelly Gordon) Harms Inc.
EXTT5=(Leiber-Stoller) Armo
EXTT6=(James Brown) Dynatone
EXTT7=(James Brown - B. Hobgood) Golo
EXTT8=(James Brown - B. Hobgood) Lois Pub. Inc.
EXTT9=(James Brown - A. Ellis) Dynatone
PLAYORDER=
